# by SinokaDev (https://sinoka.dev)
# JustDoor

# Blender 5.2.0 LTS
# www.blender.org
mtllib door2.mtl
o door
v 0.555556 1.000000 -0.015000
v 0.555556 -1.000000 -0.015000
v 0.555556 1.000000 0.015000
v 0.555556 -1.000000 0.015000
v -0.555556 1.000000 -0.015000
v -0.555556 -1.000000 -0.015000
v -0.555556 1.000000 0.015000
v -0.555556 -1.000000 0.015000
v -0.385831 0.016493 -0.029436
v -0.379117 0.006287 -0.029436
v -0.378480 -0.005491 -0.029436
v -0.385339 -0.015600 -0.029436
v -0.392651 -0.019632 -0.029436
v -0.399856 -0.020393 -0.029436
v -0.408162 -0.018120 -0.029436
v -0.414369 -0.013084 -0.029436
v -0.418176 -0.006056 -0.029436
v -0.419003 0.001894 -0.029436
v -0.416726 0.009556 -0.029436
v -0.410215 0.017073 -0.029436
v -0.399634 0.020533 -0.029436
v -0.398606 0.076968 -0.026936
v -0.383590 0.075489 0.026936
v -0.369151 0.071110 0.026936
v -0.355844 0.063997 0.026936
v -0.344181 0.054425 -0.026936
v -0.334609 0.042761 -0.026936
v -0.327496 0.029455 0.026936
v -0.323117 0.015016 0.026936
v -0.321638 -0.000000 -0.026936
v -0.323117 -0.015016 -0.026936
v -0.327496 -0.029455 -0.026936
v -0.334609 -0.042761 0.026936
v -0.344181 -0.054425 0.026936
v -0.355844 -0.063997 -0.026936
v -0.369151 -0.071110 -0.026936
v -0.383590 -0.075489 0.026936
v -0.398606 -0.076968 0.026936
v -0.413621 -0.075489 0.026936
v -0.428061 -0.071110 -0.026936
v -0.441367 -0.063997 0.026936
v -0.453030 -0.054425 -0.026936
v -0.462602 -0.042762 -0.026936
v -0.469716 -0.029454 0.026936
v -0.474095 -0.015016 -0.026936
v -0.475574 -0.000000 -0.026936
v -0.474095 0.015016 -0.026936
v -0.469716 0.029454 -0.026936
v -0.462602 0.042761 -0.026936
v -0.453030 0.054425 -0.026936
v -0.441367 0.063997 -0.026936
v -0.428061 0.071110 -0.026936
v -0.390078 -0.018664 -0.091973
v -0.394628 0.019998 -0.092009
v -0.406128 -0.019303 -0.112222
v -0.388254 0.018076 -0.092007
v -0.378480 0.005491 -0.092009
v -0.380492 -0.010349 -0.092009
v -0.398606 0.074456 -0.029436
v -0.383590 0.075489 -0.026936
v -0.369151 0.071110 -0.026936
v -0.378158 0.071925 -0.029439
v -0.355844 0.063997 -0.026936
v -0.351084 0.057905 -0.029441
v -0.325041 0.023732 -0.026946
v -0.332052 0.034087 -0.029439
v -0.325580 0.014525 -0.029436
v -0.324304 -0.007318 -0.029439
v -0.334609 -0.042762 -0.026936
v -0.332541 -0.035313 -0.029439
v -0.344181 -0.054425 -0.026936
v -0.351241 -0.057714 -0.029439
v -0.383590 -0.075489 -0.026936
v -0.376860 -0.071684 -0.029440
v -0.398606 -0.076968 -0.026936
v -0.413621 -0.075489 -0.026936
v -0.405924 -0.074303 -0.029438
v -0.441367 -0.063997 -0.026936
v -0.433918 -0.066064 -0.029440
v -0.456320 -0.047366 -0.029438
v -0.469716 -0.029455 -0.026936
v -0.470289 -0.021745 -0.029440
v -0.472908 0.007318 -0.029439
v -0.467395 0.028493 -0.029436
v -0.456320 0.047365 -0.029438
v -0.439972 0.061908 -0.029436
v -0.413621 0.075489 -0.026936
v -0.420279 0.071447 -0.029439
v -0.396624 0.020404 -0.091959
v -0.397299 -0.020400 -0.094034
v -0.219331 0.019498 -0.092335
v -0.218516 -0.020019 -0.094307
v -0.211606 0.016988 -0.094534
v -0.208395 0.010495 -0.092008
v -0.204307 0.007813 -0.094429
v -0.206021 -0.003991 -0.092008
v -0.202940 -0.001729 -0.094531
v -0.205136 -0.009368 -0.094509
v -0.210845 -0.013153 -0.092009
v -0.218431 -0.018683 -0.091995
v -0.210138 -0.015652 -0.094517
v -0.329691 -0.019043 -0.114796
v -0.329691 -0.019043 -0.114796
v -0.398606 -0.020390 -0.112296
v -0.398533 -0.019466 -0.114796
v -0.414636 -0.012745 -0.112295
v -0.406458 -0.016881 -0.114795
v -0.418940 -0.003523 -0.112301
v -0.418121 0.006216 -0.112277
v -0.416308 -0.004453 -0.114811
v -0.414407 0.012978 -0.112346
v -0.412620 0.011279 -0.114796
v -0.408253 0.018106 -0.112261
v -0.400335 0.019890 -0.114795
v -0.218709 0.020042 -0.112312
v -0.222698 0.019551 -0.114792
v -0.210494 0.015944 -0.112305
v -0.204230 0.007939 -0.112196
v -0.210549 0.013137 -0.114797
v -0.202989 -0.002203 -0.112337
v -0.205439 -0.009934 -0.112287
v -0.205426 -0.001590 -0.114812
v -0.210567 -0.016001 -0.112322
v -0.212636 -0.014876 -0.114796
v -0.218158 -0.019903 -0.112357
v -0.219478 -0.018714 -0.114796
v -0.329691 -0.019043 -0.114796
v -0.394628 0.019998 0.029436
v -0.385831 0.016493 0.029436
v -0.379117 0.006287 0.029436
v -0.378480 -0.005491 0.029436
v -0.385339 -0.015599 0.029436
v -0.392651 -0.019631 0.029436
v -0.411514 -0.015907 0.029436
v -0.416618 -0.009757 0.029436
v -0.419252 -0.000166 0.029436
v -0.416726 0.009556 0.029436
v -0.411689 0.015763 0.029436
v -0.403064 0.020110 0.029436
v -0.390078 -0.018663 0.091973
v -0.394628 0.019998 0.092009
v -0.388254 0.018076 0.092007
v -0.378480 0.005491 0.092009
v -0.380492 -0.010348 0.092009
v -0.405924 0.074303 0.029438
v -0.398606 0.076968 0.026936
v -0.378158 0.071925 0.029439
v -0.344181 0.054425 0.026936
v -0.352190 0.058625 0.029439
v -0.334609 0.042762 0.026936
v -0.332541 0.035312 0.029440
v -0.321638 0.000000 0.026936
v -0.324303 0.007318 0.029438
v -0.324344 -0.021476 0.026830
v -0.326922 -0.021745 0.029440
v -0.340891 -0.047365 0.029439
v -0.362223 -0.068067 0.026946
v -0.357240 -0.061908 0.029436
v -0.376860 -0.071684 0.029440
v -0.405924 -0.074303 0.029439
v -0.428061 -0.071110 0.026936
v -0.427099 -0.068788 0.029436
v -0.453030 -0.054425 0.026936
v -0.445971 -0.057714 0.029439
v -0.462602 -0.042761 0.026936
v -0.464670 -0.035312 0.029440
v -0.474095 -0.015016 0.026936
v -0.475574 0.000000 0.026936
v -0.472908 -0.007318 0.029438
v -0.474095 0.015016 0.026936
v -0.466935 0.035892 0.027077
v -0.470289 0.021745 0.029440
v -0.453030 0.054425 0.026936
v -0.456320 0.047365 0.029438
v -0.435931 0.067696 0.026829
v -0.433918 0.066064 0.029440
v -0.413621 0.075489 0.026936
v -0.394628 0.019998 0.092009
v -0.398606 0.020390 0.094509
v -0.397190 -0.020405 0.093993
v -0.402900 -0.020125 0.029436
v -0.213647 -0.018077 0.094562
v -0.219331 0.019499 0.092335
v -0.220637 -0.020246 0.094430
v -0.213479 0.017952 0.094526
v -0.208395 0.010496 0.092008
v -0.206229 0.011428 0.094426
v -0.202997 0.002296 0.094523
v -0.206027 -0.004058 0.092008
v -0.203664 -0.005657 0.094495
v -0.210994 -0.013299 0.092009
v -0.207373 -0.012820 0.094497
v -0.218545 -0.018697 0.091996
v -0.329691 -0.019043 0.114796
v -0.329691 -0.019043 0.114796
v -0.398606 -0.020389 0.112296
v -0.406161 -0.019294 0.112270
v -0.398533 -0.019465 0.114796
v -0.414584 -0.012812 0.112313
v -0.406183 -0.017019 0.114795
v -0.418270 -0.005724 0.112284
v -0.418963 0.002212 0.112339
v -0.416297 -0.004561 0.114812
v -0.416510 0.009940 0.112285
v -0.411386 0.016001 0.112322
v -0.412612 0.011289 0.114795
v -0.403079 0.020045 0.112478
v -0.401312 0.019433 0.114796
v -0.218791 0.020064 0.112315
v -0.222920 0.019565 0.114791
v -0.210572 0.016006 0.112323
v -0.204242 0.007971 0.112218
v -0.210716 0.013313 0.114797
v -0.202990 -0.002211 0.112339
v -0.205443 -0.009940 0.112285
v -0.205418 -0.001561 0.114813
v -0.210567 -0.016001 0.112322
v -0.212636 -0.014876 0.114796
v -0.218158 -0.019902 0.112357
v -0.219478 -0.018713 0.114796
v -0.329691 -0.019043 0.114796
vn -0.0000 1.0000 -0.0000
vn -0.0000 -0.0000 1.0000
vn -1.0000 -0.0000 -0.0000
vn -0.0000 -1.0000 -0.0000
vn 1.0000 -0.0000 -0.0000
vn -0.0000 -0.0000 -1.0000
vn 0.6712 -0.7412 0.0103
vn 0.8803 -0.4741 -0.0163
vn 0.9641 -0.2654 0.0110
vn 0.9943 -0.1050 -0.0184
vn 0.9985 0.0540 0.0095
vn 0.8354 0.5496 0.0015
vn 0.7956 0.6057 -0.0130
vn 0.8287 0.5598 -0.0011
vn -0.4536 -0.8912 0.0023
vn -0.3734 -0.8794 -0.2955
vn -0.0799 -0.9968 0.0055
vn 0.2993 -0.9541 0.0050
vn 0.4393 -0.8983 -0.0083
vn 0.5977 0.1896 -0.7790
vn 0.7022 0.3635 -0.6122
vn 0.5026 0.3804 -0.7763
vn 0.2441 0.9697 0.0109
vn -0.0005 1.0000 0.0069
vn 0.2833 0.9589 0.0139
vn 0.0803 -0.6355 -0.7679
vn 0.2233 -0.7361 -0.6389
vn 0.2863 -0.5731 -0.7679
vn -0.1619 -0.6147 -0.7720
vn -0.0724 -0.7347 -0.6746
vn 0.0389 -0.6345 -0.7720
vn -0.3926 -0.5062 -0.7679
vn -0.3626 -0.6784 -0.6390
vn -0.2028 -0.6076 -0.7679
vn -0.5491 -0.3201 -0.7720
vn -0.5707 -0.4683 -0.6745
vn -0.4211 -0.4761 -0.7720
vn -0.6356 -0.0803 -0.7678
vn -0.7361 -0.2233 -0.6390
vn -0.5730 -0.2863 -0.7679
vn -0.1002 0.6704 -0.7352
vn -0.2186 0.7206 -0.6580
vn -0.2892 0.6131 -0.7352
vn -0.0001 -0.0000 -1.0000
vn -0.2117 0.9773 0.0048
vn -0.1951 0.9808 -0.0000
vn -0.0001 -0.0001 -1.0000
vn 0.5556 0.8315 -0.0000
vn 0.7071 0.7071 -0.0000
vn 0.9816 0.1911 0.0040
vn 0.9999 0.0103 -0.0029
vn 0.9536 0.3011 -0.0078
vn -0.1951 -0.9808 -0.0000
vn -0.3827 -0.9239 -0.0000
vn -0.5556 -0.8315 -0.0000
vn -0.7071 -0.7071 -0.0000
vn -0.9239 -0.3827 -0.0000
vn -0.9808 -0.1951 -0.0000
vn 0.6062 -0.7209 0.3358
vn 0.5259 -0.4868 0.6974
vn 0.2424 -0.8028 0.5447
vn 0.5867 -0.2990 0.7526
vn 0.6353 -0.1266 0.7618
vn 0.4292 0.5038 0.7496
vn 0.6153 0.5309 0.5828
vn 0.6618 0.5325 0.5278
vn 0.0080 1.0000 -0.0010
vn -0.0089 -1.0000 -0.0033
vn -0.0000 -0.0001 1.0000
vn 0.0004 0.0102 0.9999
vn 0.0016 -0.0097 1.0000
vn 0.0001 0.0022 1.0000
vn -0.0000 0.0007 1.0000
vn -0.4051 -0.6500 -0.6430
vn -0.0394 -0.9192 -0.3918
vn -0.4823 -0.3832 -0.7878
vn -0.6557 -0.1769 -0.7340
vn -0.5482 0.1479 -0.8232
vn -0.5059 0.3955 -0.7666
vn -0.5136 0.4436 -0.7345
vn 0.5521 0.2101 -0.8069
vn 0.6494 -0.0463 -0.7590
vn 0.5298 0.5049 -0.6815
vn 0.7018 -0.0719 -0.7088
vn 0.4933 -0.5726 -0.6548
vn 0.4574 -0.5801 -0.6740
vn 0.5156 -0.2813 -0.8093
vn 1.0000 0.0061 -0.0000
vn 0.0003 0.0003 -1.0000
vn 0.0004 -0.0000 -1.0000
vn 0.0010 -0.0000 -1.0000
vn -0.9957 0.0929 0.0050
vn -0.9820 -0.1888 -0.0040
vn -0.9591 -0.2830 0.0019
vn -0.8771 0.4803 0.0051
vn -0.9571 0.2898 -0.0052
vn -0.5367 0.8438 0.0028
vn -0.7720 0.6356 -0.0048
vn -0.4478 0.8941 -0.0025
vn 0.5619 0.8271 0.0165
vn 0.6393 0.7689 -0.0065
vn 0.1829 0.9826 -0.0336
vn 1.0000 0.0031 -0.0000
vn 0.0019 0.9803 -0.1973
vn -0.1280 0.9918 -0.0010
vn 0.8803 -0.4741 0.0163
vn 0.6712 -0.7412 -0.0103
vn 0.9641 -0.2654 -0.0110
vn 0.9943 -0.1050 0.0184
vn 0.9985 0.0540 -0.0095
vn 0.7956 0.6057 0.0130
vn 0.8354 0.5496 -0.0015
vn 0.8287 0.5598 0.0011
vn 0.4414 -0.8973 0.0082
vn 0.2732 -0.9619 -0.0072
vn 0.0834 0.6432 0.7612
vn 0.2111 0.7205 0.6606
vn 0.2771 0.5695 0.7739
vn 0.4691 0.5830 0.6633
vn 0.4699 0.4147 0.7792
vn 0.3186 0.5572 0.7668
vn 0.6773 0.3622 0.6404
vn 0.6077 0.2028 0.7678
vn 0.4996 0.3893 0.7738
vn 0.7402 0.0702 0.6687
vn 0.6680 -0.0503 0.7425
vn 0.6147 0.1620 0.7719
vn 0.5883 -0.4808 0.6502
vn 0.4717 -0.5427 0.6949
vn 0.6005 -0.3338 0.7266
vn 0.2544 -0.7832 0.5674
vn 0.1651 -0.8964 0.4114
vn 0.4267 -0.8031 0.4159
vn -0.0719 -0.7421 0.6664
vn -0.1640 -0.6577 0.7352
vn 0.0389 -0.6345 0.7720
vn -0.4739 -0.5756 0.6664
vn -0.4762 -0.4211 0.7720
vn -0.3491 -0.5810 0.7352
vn -0.5062 -0.3926 0.7679
vn -0.6784 -0.3626 0.6390
vn -0.6077 -0.2028 0.7679
vn -0.7347 -0.0724 0.6745
vn -0.6345 0.0389 0.7719
vn -0.6147 -0.1619 0.7720
vn -0.7706 0.2467 0.5876
vn -0.7885 0.4210 0.4483
vn -0.8972 0.1615 0.4110
vn -0.6181 0.4905 0.6143
vn -0.4430 0.5096 0.7376
vn -0.1886 0.6606 0.7266
vn -0.0774 0.7432 0.6645
vn 0.0380 0.6407 0.7668
vn 0.1951 0.9808 -0.0000
vn 0.9223 0.3865 0.0051
vn 0.8372 0.5469 -0.0029
vn 0.8315 0.5556 -0.0000
vn -0.0001 -0.0000 1.0000
vn 0.8408 -0.5413 0.0048
vn 0.9223 -0.3865 -0.0043
vn 0.9608 -0.2772 0.0062
vn 0.3795 -0.9252 -0.0035
vn -0.8315 -0.5556 -0.0000
vn 0.0001 -0.0000 1.0000
vn -0.3788 0.9255 -0.0043
vn -0.4833 0.8754 0.0062
vn -0.2218 0.9751 -0.0003
vn -0.0017 0.9999 0.0137
vn 0.1448 0.9822 0.1196
vn 0.6358 -0.2025 -0.7448
vn 0.6275 -0.1337 -0.7671
vn 0.5796 0.0790 -0.8111
vn 0.5521 0.3835 -0.7403
vn 0.5847 0.3822 -0.7156
vn -0.0048 0.7243 -0.6895
vn 0.4843 -0.8171 -0.3127
vn 0.1134 -0.9555 -0.2722
vn 0.2499 -0.8421 -0.4779
vn 0.1774 0.9841 -0.0027
vn 0.2760 0.9147 0.2952
vn 0.0004 0.0102 -0.9999
vn -0.0000 -0.0001 -1.0000
vn 0.0001 0.0020 -1.0000
vn 0.0001 0.0022 -1.0000
vn -0.3672 -0.8793 0.3034
vn -0.3906 -0.6464 0.6554
vn -0.4682 -0.3816 0.7970
vn -0.6613 -0.1585 0.7332
vn -0.7157 -0.2237 0.6616
vn -0.5671 0.1074 0.8167
vn -0.5291 0.3972 0.7499
vn -0.5726 0.7251 0.3825
vn -0.5485 0.2345 0.8026
vn -0.1425 0.9174 0.3716
vn -0.2583 0.9426 0.2115
vn 0.4417 0.6023 0.6650
vn 0.5214 0.5090 0.6849
vn 0.5451 0.2099 0.8117
vn 0.6491 -0.0452 0.7593
vn 0.7019 -0.0737 0.7085
vn 0.5155 -0.2813 0.8094
vn 0.4575 -0.5800 0.6741
vn 0.4933 -0.5726 0.6548
vn 0.0023 -0.9055 0.4244
vn -0.0355 -0.9837 0.1765
vn 0.2474 -0.9271 0.2815
vn 0.0001 0.0002 1.0000
vn 0.0003 -0.0001 1.0000
vn -0.3672 -0.8793 0.3032
vn -0.6193 -0.7851 -0.0060
vn -0.2025 -0.9792 -0.0082
vn 0.0010 -0.0000 1.0000
vn -0.7671 -0.6415 0.0057
vn -0.8866 -0.4626 -0.0053
vn -0.9601 -0.2797 0.0050
vn -1.0000 0.0055 -0.0038
vn -0.0010 0.0013 1.0000
vn 0.1179 0.9929 -0.0182
vn 0.1811 0.9827 0.0380
vn 0.4622 0.8864 -0.0238
vn 0.6279 0.7781 0.0197
vn 0.8288 0.5591 -0.0232
vn 0.9233 0.3836 0.0200
vn 0.9923 0.1225 -0.0203
vn 0.9953 -0.0950 0.0200
vn 0.9607 -0.2772 -0.0157
vn 0.8753 -0.4834 0.0161
vn 0.7804 -0.6250 -0.0160
vn 0.6228 -0.7822 0.0170
vn 0.7897 0.6133 -0.0151
vn 0.2153 0.7286 -0.6502
vn -0.0022 0.6662 -0.7457
vn -0.0020 0.6663 -0.7457
vn 0.1007 0.6911 -0.7157
vn 0.4864 0.5927 -0.6419
vn 0.2754 0.5630 -0.7792
vn 0.3126 0.5509 -0.7738
vn 0.4793 0.4141 -0.7738
vn 0.6929 0.0888 -0.7155
vn 0.7235 0.0529 -0.6883
vn 0.7497 -0.0707 -0.6580
vn 0.6784 -0.3626 -0.6389
vn 0.6147 -0.1620 -0.7720
vn 0.6077 -0.2028 -0.7679
vn 0.5062 -0.3926 -0.7679
vn 0.4761 -0.4211 -0.7720
vn 0.4683 -0.5706 -0.6746
vn 0.3201 -0.5492 -0.7720
vn -0.6345 -0.0389 -0.7719
vn -0.7422 0.0719 -0.6663
vn -0.6070 0.2514 -0.7539
vn -0.6577 0.1640 -0.7352
vn -0.5810 0.3491 -0.7352
vn -0.5821 0.4777 -0.6580
vn -0.3650 0.5462 -0.7539
vn -0.4557 0.5018 -0.7352
vn -0.3650 0.5463 -0.7539
vn 0.3827 0.9239 -0.0000
vn -0.0000 0.0001 -1.0000
vn 0.7071 -0.7071 -0.0000
vn 0.8315 -0.5556 -0.0000
vn 0.6954 -0.7186 0.0046
vn 0.5585 -0.8295 -0.0035
vn 0.1951 -0.9808 -0.0000
vn 0.0001 -0.0000 -1.0000
vn 0.0001 0.0001 -1.0000
vn 0.6176 -0.0008 0.7865
vn 0.5690 0.0851 0.8179
vn 0.0001 0.0036 1.0000
vn 0.3826 0.4931 0.7813
vn 0.0016 0.0379 0.9993
vn 0.0021 -0.0135 0.9999
vn 0.2243 -0.9375 0.2659
vn 0.0016 0.0382 0.9993
vn 0.0013 -0.8193 0.5733
vn -0.0085 -0.9379 -0.3469
vn -0.0422 -0.9842 -0.1721
vn -0.3912 0.5296 -0.7527
vn -0.7035 -0.0864 -0.7054
vn 0.3305 0.6401 -0.6935
vn 0.4438 0.6017 -0.6641
vn 0.2513 -0.9278 -0.2756
vn 0.1602 -0.8417 -0.5156
vn 0.0077 1.0000 -0.0010
vn 0.1445 0.9894 0.0164
vn 0.2513 -0.9279 -0.2754
vn 0.0023 -0.9055 -0.4244
vn 0.1600 -0.8418 -0.5155
vn -0.0007 1.0000 0.0069
vn -0.7751 -0.6318 -0.0024
vn -0.7763 -0.6303 -0.0024
vn -0.0007 0.0011 -1.0000
vn 0.7848 0.6197 0.0103
vn -0.0000 0.0008 -1.0000
vn -0.0000 0.0010 -1.0000
vn 0.9913 0.1313 -0.0005
vn 0.9971 -0.0767 -0.0007
vn 0.9964 -0.0850 -0.0007
vn 0.8843 -0.4669 -0.0003
vn 0.8802 -0.4747 -0.0003
vn 0.6259 -0.7799 0.0027
vn -0.0001 -0.0007 -1.0000
vn 0.3368 0.9416 -0.0054
vn 0.1776 0.9841 -0.0027
vn 0.1710 0.9853 -0.0027
vn 0.7897 0.6133 0.0151
vn 0.6222 -0.2086 0.7545
vn 0.6309 -0.1674 0.7576
vn 0.4219 -0.5480 0.7223
vn -0.2514 -0.6070 0.7539
vn -0.2924 0.5875 0.7546
vn -0.3277 0.5645 0.7576
vn 1.0000 -0.0079 0.0023
vn 0.9806 -0.1961 -0.0036
vn -0.0000 0.0001 1.0000
vn -0.0001 0.0001 1.0000
vn -0.9786 0.2055 0.0030
vn -0.9225 0.3859 -0.0017
vn -0.8343 0.5513 -0.0008
vn -0.7110 0.7031 0.0060
vn -0.7107 0.7034 0.0060
vn -0.5547 0.8320 -0.0036
vn 0.5036 -0.5176 -0.6917
vn 0.5497 -0.3927 -0.7373
vn 0.4489 0.5452 -0.7080
vn 0.0001 0.0035 -1.0000
vn -0.0000 0.0007 -1.0000
vn -0.0000 -0.0000 -0.0000
vn 0.0016 0.0382 -0.9993
vn 0.0011 -0.8053 -0.5928
vn -0.0381 -0.9197 0.3909
vn -0.0084 -0.9379 0.3469
vn -0.0073 -1.0000 0.0050
vn -0.0382 -0.9196 0.3910
vn 0.3241 0.6428 0.6941
vn 0.1601 -0.8418 0.5156
vn -0.8851 0.4654 -0.0008
vn -0.9951 0.0986 0.0021
vn -0.8845 0.4665 -0.0008
vn -0.6211 0.7837 -0.0001
vn -0.0003 0.9742 0.2257
vn -0.0000 0.0010 1.0000
vn -0.0000 0.0009 1.0000
vn -0.0001 -0.0001 1.0000
vn -0.0001 -0.0008 1.0000
vt 0.625000 0.500000
vt 0.875000 0.500000
vt 0.875000 0.750000
vt 0.625000 0.750000
vt 0.375000 0.750000
vt 0.625000 1.000000
vt 0.375000 1.000000
vt 0.375000 0.000000
vt 0.625000 0.000000
vt 0.625000 0.250000
vt 0.375000 0.250000
vt 0.125000 0.500000
vt 0.375000 0.500000
vt 0.125000 0.750000
vt 0.791005 0.201800
vt 0.803877 0.219179
vt 0.809891 0.233697
vt 0.809891 0.266303
vt 0.810223 0.269439
vt 0.787982 0.299093
vt 0.720487 0.194031
vt 0.727223 0.191615
vt 0.746160 0.186800
vt 0.768367 0.189452
vt 0.776315 0.192322
vt 0.799683 0.521233
vt 0.825318 0.500000
vt 0.843750 0.521233
vt 0.762404 0.312357
vt 0.746835 0.312660
vt 0.781106 0.304456
vt 0.531250 0.521233
vt 0.546875 0.500000
vt 0.562500 0.521233
vt 0.468750 0.521233
vt 0.484375 0.500000
vt 0.500000 0.521233
vt 0.406250 0.521233
vt 0.421875 0.500000
vt 0.437500 0.521233
vt 0.343750 0.521233
vt 0.359375 0.500000
vt 0.375000 0.521233
vt 0.281250 0.521233
vt 0.296875 0.500000
vt 0.312500 0.521233
vt 0.031250 0.521233
vt 0.046875 0.500000
vt 0.062500 0.521233
vt 0.750000 0.482167
vt 0.813157 0.472287
vt 0.000000 0.521233
vt 0.896576 0.428603
vt 0.906250 0.521233
vt 0.875000 0.521232
vt 0.781250 0.521233
vt 0.750000 0.521233
vt 0.714743 0.301909
vt 0.571397 0.396576
vt 0.621015 0.443040
vt 0.682930 0.471100
vt 0.790817 0.201646
vt 0.798534 0.209402
vt 0.776344 0.192338
vt 0.806275 0.221060
vt 0.811513 0.237897
vt 0.785686 0.301679
vt 0.803682 0.281142
vt 0.808052 0.273856
vt 0.758543 0.312737
vt 0.752652 0.186693
vt 0.717719 0.199224
vt 0.739173 0.189654
vt 0.700461 0.210627
vt 0.691492 0.237397
vt 0.689709 0.269213
vt 0.698534 0.284110
vt 0.701106 0.290159
vt 0.807920 0.274002
vt 0.810760 0.245422
vt 0.795391 0.288608
vt 0.812907 0.243187
vt 0.789484 0.200552
vt 0.792668 0.204750
vt 0.805332 0.219295
vt 0.762243 0.187886
vt 0.750000 0.186422
vt 0.756896 0.195970
vt 0.751307 0.188231
vt 0.730458 0.309323
vt 0.686998 0.255848
vt 0.688127 0.239270
vt 0.689555 0.231293
vt 0.694031 0.279513
vt 0.720247 0.305841
vt 0.789706 0.299266
vt 0.764186 0.311353
vt 0.774108 0.191587
vt 0.762834 0.309348
vt 0.968750 0.521233
vt 0.955933 0.500000
vt 0.937500 0.521233
vt 0.893432 0.500000
vt 0.875000 0.521233
vt 0.828125 0.500000
vt 0.812500 0.521233
vt 0.765625 0.500000
vt 0.640625 0.500000
vt 0.625000 0.521233
vt 0.656250 0.521233
vt 0.578125 0.521233
vt 0.390625 0.500000
vt 0.328125 0.500000
vt 0.265625 0.500000
vt 0.250000 0.521233
vt 0.203125 0.500000
vt 0.173027 0.521233
vt 0.218750 0.521233
vt 0.140625 0.500000
vt 0.125000 0.521233
vt 0.015880 0.500000
vt 1.000000 0.521233
vt 0.953767 0.358916
vt 0.979936 0.272647
vt 0.687500 0.521233
vt 0.705208 0.521233
vt 0.928603 0.103424
vt 0.528900 0.317070
vt 0.687221 0.249523
vt 0.709586 0.298685
vt 0.641084 0.453767
vt 0.736459 0.311339
vt 0.080209 0.521233
vt 0.750000 0.313578
vt 0.810819 0.232527
vt 0.811457 0.237694
vt 0.812879 0.257101
vt 0.802217 0.284820
vt 0.770966 0.309301
vt 0.000000 0.000000
vt 0.779917 0.194247
vt 0.758411 0.187250
vt 0.776059 0.192185
vt 0.727116 0.191626
vt 0.718453 0.198697
vt 0.700630 0.210421
vt 0.691616 0.237105
vt 0.689244 0.232320
vt 0.687095 0.256840
vt 0.698553 0.284141
vt 0.710516 0.299448
vt 0.694679 0.280724
vt 0.729459 0.309021
vt 0.736319 0.311393
vt 0.789467 0.299462
vt 0.794907 0.289123
vt 0.807884 0.274100
vt 0.810743 0.245513
vt 0.812905 0.243160
vt 0.805321 0.219276
vt 0.765948 0.188985
vt 0.710135 0.200865
vt 0.736958 0.188579
vt 0.694366 0.219861
vt 0.763926 0.311397
vt 0.780487 0.305448
vt 0.799351 0.210398
vt 0.999490 0.500000
vt 0.890625 0.500000
vt 0.781250 0.500000
vt 0.734375 0.500000
vt 0.671875 0.500000
vt 0.718750 0.521233
vt 0.609375 0.500000
vt 0.593750 0.521233
vt 0.234375 0.500000
vt 0.187500 0.500000
vt 0.187500 0.521233
vt 0.156250 0.521233
vt 0.093750 0.500000
vt 0.093750 0.521233
vt 0.000510 0.500000
vt 0.977706 0.295294
vt 0.979936 0.227353
vt 0.955694 0.355310
vt 0.953767 0.141084
vt 0.896576 0.071397
vt 0.817070 0.028900
vt 0.727353 0.020064
vt 0.641084 0.046233
vt 0.571397 0.103424
vt 0.701315 0.209586
vt 0.528900 0.182930
vt 0.520064 0.272647
vt 0.535506 0.338846
vt 0.813053 0.244665
vt 0.764744 0.188846
vt 0.765949 0.189019
vt 0.703125 0.500000
vt 0.593750 0.500000
vt 0.437500 0.500000
vt 0.078125 0.500000
vt 0.727353 0.479936
vt 0.893415 0.431197
vt 0.878985 0.056960
vt 0.971100 0.182930
vt 0.661154 0.035506
vt 0.603424 0.071397
vt 0.546233 0.141084
vt 0.520064 0.227353
vt 0.798130 0.208910
vt 0.752895 0.186707
vt 0.762287 0.309453
s 1
usemtl Material.001
f 1/1/1 5/2/1 7/3/1 3/4/1
f 4/5/2 3/4/2 7/6/2 8/7/2
f 8/8/3 7/9/3 5/10/3 6/11/3
f 6/12/4 2/13/4 4/5/4 8/14/4
f 2/13/5 1/1/5 3/4/5 4/5/5
f 6/11/6 5/10/6 1/1/6 2/13/6
usemtl Material.002
f 12/15/7 58/16/8 11/17/9
f 11/17/9 57/18/10 10/19/11
f 10/19/12 57/18/13 9/20/14
f 15/21/15 55/22/16 14/23/17
f 13/24/18 53/25/19 12/15/7
f 65/26/20 66/27/21 27/28/22
f 54/29/23 21/30/24 9/20/25 56/31/25
f 73/32/26 74/33/27 36/34/28
f 76/35/29 77/36/30 75/37/31
f 78/38/32 79/39/33 40/40/34
f 43/41/35 80/42/36 42/43/37
f 45/44/38 82/45/39 81/46/40
f 87/47/41 88/48/42 52/49/43
f 21/30/6 59/50/6 62/51/44
f 177/47/45 22/52/1 87/47/46
f 21/30/6 62/51/44 9/20/6
f 9/20/6 62/51/44 64/53/47
f 25/54/48 26/55/49 63/54/48
f 29/56/50 30/57/51 65/26/52
f 39/35/53 40/40/54 76/35/53
f 41/38/55 42/43/56 78/38/55
f 44/46/57 45/44/58 81/46/57
f 20/58/6 85/59/6 86/60/6
f 20/58/6 88/61/6 21/30/6
f 101/62/59 99/63/60 100/64/61
f 98/65/62 96/66/63 99/63/60
f 93/67/64 94/68/65 95/69/66
f 21/30/24 54/29/23 89/70/67
f 55/22/16 90/71/68 14/23/17
f 57/18/69 94/68/70 56/31/71
f 58/16/72 99/63/73 96/66/2
f 55/22/16 107/72/74 105/73/75
f 106/74/76 110/75/77 107/72/74
f 109/76/78 112/77/79 110/75/77
f 111/78/80 112/77/79 109/76/78
f 118/79/81 122/80/82 119/81/83
f 120/82/84 122/80/82 118/79/81
f 123/83/85 124/84/86 121/85/87
s 0
f 127/86/2 104/87/2 102/88/2
f 105/73/88 102/88/2 103/89/2
f 103/89/2 102/88/2 104/87/2
s 1
f 114/90/89 105/73/44 107/72/90
f 114/90/89 107/72/90 110/75/91
f 18/91/92 108/92/93 17/93/94
f 19/94/95 109/76/96 18/91/92
f 20/58/97 111/78/98 19/94/95
f 20/58/97 113/95/99 111/78/98
f 93/67/100 117/96/101 115/97/102
s 0
f 102/88/2 126/98/103 127/86/2
s 1
f 116/99/104 114/90/105 115/97/102
f 144/16/106 132/15/107 131/17/108
f 143/18/109 131/17/108 130/19/110
f 143/18/111 130/19/112 129/20/113
f 140/25/114 133/24/115 132/15/107
f 23/100/116 147/101/117 24/102/118
f 149/103/119 148/104/120 25/54/121
f 151/105/122 28/106/123 150/28/124
f 153/107/125 152/57/126 29/56/127
f 156/108/128 34/109/129 33/110/130
f 159/33/131 37/32/132 157/111/133
f 160/36/134 39/35/135 38/37/136
f 164/112/137 163/43/138 41/38/139
f 165/41/140 166/113/141 44/46/142
f 169/114/143 168/115/144 167/44/145
f 172/116/146 171/117/147 170/118/148
f 174/119/149 173/120/150 171/117/147
f 177/47/151 145/121/152 146/52/153
f 23/100/154 22/122/1 146/122/1
f 147/51/2 128/29/2 129/20/2
f 28/106/155 27/28/156 150/28/157
f 130/19/158 151/123/158 129/20/2
f 131/17/158 153/124/158 130/19/158
f 33/110/159 32/125/160 154/126/161
f 132/15/2 156/127/158 131/17/158
f 37/32/132 36/34/162 157/111/133
f 41/38/55 40/40/54 161/40/54
f 44/46/57 43/41/163 165/41/163
f 172/128/164 136/129/164 137/94/164
f 138/130/69 174/59/2 137/94/164
f 176/131/69 138/130/69 139/132/69
f 177/47/45 52/49/165 175/133/166
f 139/132/167 179/134/168 178/29/169
f 190/135/170 189/136/171 188/137/172
f 186/68/173 187/138/174 188/137/172
f 183/139/175 142/140/175 179/134/175
f 182/141/176 184/142/177 193/143/178
f 139/132/167 178/29/169 128/29/179
f 142/140/180 178/29/169 179/134/168
f 186/68/181 143/18/182 142/31/183
f 143/18/182 189/136/6 144/16/184
f 197/144/185 200/145/186 199/146/187
f 199/146/187 203/147/188 201/148/189
f 203/147/188 202/149/190 201/148/189
f 206/150/191 205/151/192 204/152/193
f 208/153/194 207/154/195 205/151/192
f 211/155/196 213/156/197 212/157/198
f 216/158/199 214/159/200 212/157/198
f 214/159/200 216/158/199 215/160/201
f 218/84/202 217/83/203 215/160/201
f 221/86/204 196/87/205 219/161/206
f 198/73/158 194/88/2 208/153/207
s 0
f 195/89/2 196/87/2 194/88/2
s 1
f 198/73/158 208/153/207 200/145/208
f 197/144/209 134/162/210 181/163/211
f 200/145/208 208/153/207 203/147/212
f 199/146/213 135/164/214 134/162/210
f 201/148/215 136/129/216 135/164/214
f 203/147/212 208/153/207 206/150/217
f 183/139/218 209/165/219 185/166/220
f 185/166/220 211/155/221 187/138/222
f 212/157/223 188/137/224 187/138/222
f 214/159/225 190/135/226 188/137/224
f 215/160/227 192/167/228 190/135/226
f 217/83/229 182/141/176 192/167/228
f 194/88/2 220/98/2 208/153/207
f 182/141/176 219/161/206 184/142/177
f 12/15/7 53/25/19 58/16/8
f 11/17/9 58/16/8 57/18/10
f 9/20/14 57/18/13 56/31/230
f 62/101/231 59/168/232 22/122/233 60/100/234
f 64/169/235 62/101/231 61/102/236 63/54/237
f 60/100/234 61/102/236 62/101/231
f 64/169/235 26/55/238 27/28/22 66/27/21
f 63/54/237 26/55/238 64/169/235
f 67/170/239 65/26/20 30/57/240 68/171/241
f 65/26/20 67/170/239 66/27/21
f 70/172/242 68/171/241 31/173/243 32/125/244
f 30/57/240 31/173/243 68/171/241
f 70/172/242 69/110/245 71/109/246 72/174/247
f 32/125/244 69/110/245 70/172/242
f 74/33/27 72/174/247 35/175/248 36/34/28
f 71/109/246 35/175/248 72/174/247
f 74/33/27 73/32/26 75/37/31 77/36/30
f 79/39/33 77/36/30 76/35/29 40/40/34
f 79/39/33 78/38/32 42/43/37 80/42/36
f 82/45/39 80/42/36 43/41/35 81/46/40
f 82/45/39 45/44/38 46/115/249 83/176/250
f 84/177/251 83/176/250 47/118/252 48/178/251
f 46/115/249 47/118/252 83/176/250
f 84/177/251 48/178/251 49/179/253 85/119/254
f 86/180/255 85/119/254 50/120/256 51/181/257
f 49/179/253 50/120/256 85/119/254
f 86/180/255 51/181/257 52/49/43 88/48/42
f 59/182/232 88/48/42 87/47/41 22/52/233
f 61/102/258 60/100/154 23/100/154 24/102/258
f 22/122/1 23/100/154 60/100/154
f 21/30/6 88/61/6 59/50/6
f 63/54/48 61/102/258 24/102/258 25/54/48
f 67/183/6 68/184/259 11/17/259 10/19/6
f 9/20/6 64/53/47 66/185/182
f 27/28/156 28/106/155 65/26/52
f 10/19/6 9/20/6 66/185/182
f 28/106/155 29/56/50 65/26/52
f 10/19/6 66/185/182 67/183/6
f 71/109/260 69/110/261 33/110/159 34/109/262
f 11/17/259 68/184/259 70/186/6
f 32/125/160 33/110/159 69/110/261
f 70/186/6 72/187/259 12/15/259 11/17/259
f 74/188/259 13/24/259 12/15/259 72/187/259
f 71/109/260 34/109/262 35/175/263
f 75/37/4 73/32/264 37/32/132 38/37/4
f 36/34/162 37/32/132 73/32/264
f 77/189/259 14/23/259 13/24/259 74/188/259
f 76/35/53 75/37/4 38/37/4 39/35/53
f 79/190/259 15/21/259 14/23/259 77/189/259
f 80/191/6 16/192/6 15/21/259 79/190/259
f 40/40/54 41/38/55 78/38/55
f 80/191/6 82/193/265 17/93/265 16/192/6
f 43/41/163 44/46/57 81/46/57
f 82/193/265 83/194/266 18/91/266 17/93/265
f 84/195/6 19/94/6 18/91/266 83/194/266
f 96/66/63 97/196/267 95/69/268 94/68/268
f 19/94/6 84/195/6 85/59/6
f 20/58/6 19/94/6 85/59/6
f 20/58/6 86/60/6 88/61/6
f 52/49/165 177/47/45 87/47/46
f 101/62/59 98/65/62 99/63/60
f 98/65/62 97/196/267 96/66/63
f 100/64/269 99/63/73 58/16/72 53/25/269
f 93/67/64 91/139/270 94/68/65
f 91/139/271 89/70/272 56/140/71
f 92/197/273 101/62/59 100/64/61
f 56/31/71 94/68/70 91/139/274
f 57/18/69 96/66/2 94/68/70
f 57/18/69 58/16/72 96/66/2
f 92/197/273 100/64/61 53/25/275 90/71/275
f 105/73/75 103/89/276 104/87/277 55/22/16
f 90/71/68 53/140/19 13/24/18
f 14/23/17 90/71/68 13/24/18
f 112/77/79 111/78/80 113/95/278 114/90/278
f 55/22/16 106/74/76 107/72/74
f 106/74/76 108/92/279 110/75/77
f 108/92/279 109/76/78 110/75/77
f 119/81/83 116/99/280 115/97/280 117/96/281
f 124/84/86 123/83/85 125/198/282 126/98/283
f 117/96/281 118/79/81 119/81/83
f 120/82/84 121/85/87 122/80/82
f 121/85/87 124/84/86 122/80/82
f 115/97/102 114/90/105 89/70/284 91/139/285
f 125/198/286 127/86/287 126/98/288
f 127/86/287 125/198/286 104/87/277
f 92/197/273 90/71/68 104/87/277 125/198/286
f 114/90/105 21/30/289 89/70/284
f 105/73/259 114/90/259 102/88/259
f 55/22/16 15/21/15 16/192/290 106/74/291
f 104/87/277 90/71/68 55/22/16
f 106/74/291 16/192/290 17/93/94 108/92/93
f 113/95/99 20/58/97 21/30/289 114/90/105
f 110/75/91 112/77/292 114/90/89
f 18/91/92 109/76/96 108/92/93
f 19/94/95 111/78/98 109/76/96
f 118/79/293 117/96/101 93/67/100 95/69/293
f 91/139/285 93/67/100 115/97/102
f 116/99/294 119/81/295 114/90/259
f 118/79/296 95/69/296 97/196/297 120/82/298
f 119/81/295 122/80/47 114/90/259
f 120/82/298 97/196/297 98/65/299 121/85/300
f 121/85/300 98/65/299 101/62/59 123/83/301
f 114/90/259 122/80/47 124/84/302
f 123/83/301 101/62/59 92/197/273 125/198/286
f 114/90/259 124/84/302 126/98/259
f 129/20/303 128/29/304 141/29/305 142/31/303
f 102/88/259 114/90/259 126/98/259
f 144/16/106 140/25/114 132/15/107
f 143/18/109 144/16/106 131/17/108
f 142/31/306 143/18/111 129/20/113
f 147/101/117 23/100/116 146/122/153 145/168/152
f 149/103/119 25/54/121 24/102/118 147/101/117
f 151/105/122 150/28/124 148/104/120 149/103/119
f 29/56/127 28/106/123 151/105/122 153/107/125
f 155/199/307 154/126/308 152/57/126 153/107/125
f 33/110/130 154/126/308 155/199/307 156/108/128
f 158/200/309 157/111/133 34/109/129 156/108/128
f 38/37/136 37/32/132 159/33/131 160/36/134
f 157/111/133 158/200/309 159/33/131
f 162/201/310 161/40/310 39/35/135 160/36/134
f 41/38/139 161/40/310 162/201/310 164/112/137
f 166/113/141 165/41/140 163/43/138 164/112/137
f 167/44/145 44/46/142 166/113/141 169/114/143
f 172/116/146 170/118/148 168/115/144 169/114/143
f 176/202/311 175/133/312 173/120/150 174/119/149
f 172/116/146 174/119/149 171/117/147
f 177/47/151 175/133/312 176/202/311 145/121/152
f 145/203/2 139/132/69 128/29/2 147/51/2
f 26/55/49 148/104/49 150/28/157 27/28/156
f 146/52/1 22/52/1 177/47/45
f 129/20/2 149/204/158 147/51/2
f 148/104/49 26/55/49 25/54/48
f 30/57/51 152/57/313 154/126/161 31/173/314
f 151/123/158 149/204/158 129/20/2
f 153/124/158 151/123/158 130/19/158
f 152/57/313 30/57/51 29/56/50
f 132/15/2 133/24/315 159/188/315 158/205/2
f 155/206/158 153/124/158 131/17/158
f 154/126/161 32/125/160 31/173/314
f 156/127/158 155/206/158 131/17/158
f 34/109/262 157/111/133 35/175/263
f 158/205/2 156/127/158 132/15/2
f 157/111/133 36/34/162 35/175/263
f 133/24/315 181/163/2 160/189/316 159/188/315
f 162/207/2 181/163/2 134/162/164 164/208/164
f 161/40/54 40/40/54 39/35/53
f 162/207/2 160/189/316 181/163/2
f 42/43/56 163/43/56 165/41/163 43/41/163
f 163/43/56 42/43/56 41/38/55
f 134/162/164 135/164/164 166/209/164 164/208/164
f 135/164/164 136/129/164 169/210/164 166/209/164
f 167/44/58 45/44/58 44/46/57
f 45/44/58 167/44/58 168/115/3 46/115/3
f 46/115/3 168/115/3 170/118/148 47/118/317
f 48/178/318 47/118/317 170/118/148 171/117/147
f 172/128/164 169/210/164 136/129/164
f 49/179/319 171/117/147 173/120/320 50/120/321
f 171/117/147 49/179/319 48/178/318
f 174/59/2 172/128/164 137/94/164
f 50/120/321 173/120/320 175/133/166 51/181/322
f 191/211/323 192/167/324 182/141/176 193/143/178
f 176/131/69 174/59/2 138/130/69
f 175/133/166 52/49/165 51/181/322
f 145/203/2 176/131/69 139/132/69
f 189/136/171 190/135/170 192/167/324 191/211/323
f 185/166/325 187/138/174 186/68/173 183/139/325
f 189/136/171 186/68/173 188/137/172
f 193/143/326 140/25/326 144/16/184 191/211/327
s 0
f 178/29/328 141/29/328 128/29/328
s 1
f 183/139/329 186/68/181 142/31/183
f 186/68/181 189/136/6 143/18/182
f 144/16/184 189/136/6 191/211/327
f 140/25/330 193/143/178 184/142/177 180/212/330
f 198/73/331 197/144/209 196/87/205 195/89/332
f 133/24/115 140/140/114 180/212/333
f 133/24/115 180/212/333 181/163/211
f 206/150/191 204/152/193 202/149/190 203/147/188
f 197/144/185 198/73/334 200/145/186
f 199/146/187 200/145/186 203/147/188
f 213/156/197 211/155/196 209/165/335 210/213/335
f 206/150/191 208/153/194 205/151/192
f 219/161/206 217/83/203 218/84/202 220/98/336
f 212/157/198 213/156/197 216/158/199
f 216/158/199 218/84/202 215/160/201
f 179/134/168 207/154/195 209/165/219 183/139/218
f 220/98/336 221/86/204 219/161/206
s 0
f 221/86/2 194/88/2 196/87/2
s 1
f 196/87/205 180/212/333 184/142/177 219/161/206
f 139/132/167 207/154/195 179/134/168
s 0
f 198/73/88 195/89/2 194/88/2
s 1
f 181/163/211 180/212/333 196/87/205 197/144/209
f 137/94/337 136/129/216 202/149/338 204/152/339
f 197/144/209 199/146/213 134/162/210
f 199/146/213 201/148/215 135/164/214
f 201/148/215 202/149/338 136/129/216
f 138/130/340 137/94/337 204/152/339 205/151/192
f 139/132/167 138/130/340 205/151/192 207/154/195
f 210/213/341 209/165/219 207/154/195 208/153/194
f 208/153/316 213/156/342 210/213/343
f 185/166/220 209/165/219 211/155/221
f 187/138/222 211/155/221 212/157/223
f 208/153/316 216/158/344 213/156/342
f 212/157/223 214/159/225 188/137/224
f 214/159/225 215/160/227 190/135/226
f 218/84/345 216/158/344 208/153/316
f 215/160/227 217/83/229 192/167/228
f 220/98/315 218/84/345 208/153/316
f 217/83/229 219/161/206 182/141/176
s 0
f 194/88/2 221/86/2 220/98/103
